<svg width="76" height="29" viewBox="0 0 76 29" fill="none" xmlns="http://www.w3.org/2000/svg">
<g filter="url(#filter0_di)">
<rect width="76" height="28" rx="6" fill="#2F80ED"/>
<path d="M13.043 18H14.4082V11.9883H14.5078L16.8516 18H17.8828L20.2266 11.9883H20.332V18H21.6914V9.54492H19.957L17.4199 16.0488H17.3203L14.7773 9.54492H13.043V18ZM25.3711 18.1055C26.2148 18.1055 26.8945 17.7422 27.2461 17.1211H27.3457V18H28.7871V13.623C28.7871 12.2695 27.8613 11.4727 26.2148 11.4727C24.6914 11.4727 23.6602 12.1875 23.5195 13.2656L23.5137 13.3184H24.8906L24.8965 13.2949C25.043 12.873 25.4766 12.6328 26.1445 12.6328C26.9297 12.6328 27.3457 12.9844 27.3457 13.623V14.1738L25.6992 14.2734C24.1406 14.3672 23.2676 15.0352 23.2676 16.1777V16.1895C23.2676 17.3555 24.1523 18.1055 25.3711 18.1055ZM24.709 16.1191V16.1074C24.709 15.5801 25.0898 15.2812 25.9043 15.2285L27.3457 15.1348V15.6504C27.3457 16.4121 26.6953 16.9863 25.8164 16.9863C25.1719 16.9863 24.709 16.6641 24.709 16.1191ZM30.5391 18H31.998V14.2676C31.998 13.3066 32.5371 12.6973 33.4043 12.6973C34.2891 12.6973 34.6934 13.2012 34.6934 14.1973V18H36.1523V13.8574C36.1523 12.334 35.373 11.4727 33.9434 11.4727C33.0176 11.4727 32.4023 11.8887 32.0977 12.5742H31.998V11.5957H30.5391V18ZM38.625 10.5234C39.0996 10.5234 39.4922 10.1426 39.4922 9.66211C39.4922 9.1875 39.0996 8.80078 38.625 8.80078C38.1445 8.80078 37.752 9.1875 37.752 9.66211C37.752 10.1426 38.1445 10.5234 38.625 10.5234ZM37.8926 18H39.3516V11.5957H37.8926V18ZM41.6133 18H43.0723V12.7266H44.4375V11.5957H43.0488V11.0449C43.0488 10.4355 43.3125 10.1074 43.998 10.1074C44.2031 10.1074 44.3848 10.1191 44.4961 10.1367V9.11719C44.2617 9.07617 43.998 9.05859 43.6875 9.05859C42.2637 9.05859 41.6133 9.68555 41.6133 10.9629V11.5957H40.5645V12.7266H41.6133V18ZM48.375 18.1289C50.291 18.1289 51.457 16.875 51.457 14.8008V14.7891C51.457 12.7266 50.2852 11.4727 48.375 11.4727C46.4707 11.4727 45.293 12.7324 45.293 14.7891V14.8008C45.293 16.875 46.4531 18.1289 48.375 18.1289ZM48.375 16.9453C47.3613 16.9453 46.7812 16.1543 46.7812 14.8066V14.7949C46.7812 13.4473 47.3613 12.6504 48.375 12.6504C49.3828 12.6504 49.9629 13.4473 49.9629 14.7949V14.8066C49.9629 16.1543 49.3887 16.9453 48.375 16.9453ZM52.9805 18H54.4395V9.11719H52.9805V18ZM58.5938 18.1055C59.4961 18.1055 60.1875 17.6953 60.5391 16.998H60.6387V18H62.1035V9.11719H60.6387V12.6152H60.5391C60.2051 11.9238 59.4727 11.4902 58.5938 11.4902C56.9707 11.4902 55.9688 12.7559 55.9688 14.7949V14.8066C55.9688 16.834 56.9883 18.1055 58.5938 18.1055ZM59.0508 16.875C58.0547 16.875 57.4512 16.0957 57.4512 14.8066V14.7949C57.4512 13.5059 58.0605 12.7207 59.0508 12.7207C60.041 12.7207 60.6621 13.5117 60.6621 14.7949V14.8066C60.6621 16.0898 60.0469 16.875 59.0508 16.875Z" fill="white"/>
<rect x="0.5" y="0.5" width="75" height="27" rx="5.5" stroke="#1B1F23" stroke-opacity="0.15"/>
</g>
<defs>
<filter id="filter0_di" x="0" y="0" width="76" height="29" filterUnits="userSpaceOnUse" color-interpolation-filters="sRGB">
<feFlood flood-opacity="0" result="BackgroundImageFix"/>
<feColorMatrix in="SourceAlpha" type="matrix" values="0 0 0 0 0 0 0 0 0 0 0 0 0 0 0 0 0 0 127 0"/>
<feOffset dy="1"/>
<feColorMatrix type="matrix" values="0 0 0 0 0.105882 0 0 0 0 0.121569 0 0 0 0 0.137255 0 0 0 0.1 0"/>
<feBlend mode="normal" in2="BackgroundImageFix" result="effect1_dropShadow"/>
<feBlend mode="normal" in="SourceGraphic" in2="effect1_dropShadow" result="shape"/>
<feColorMatrix in="SourceAlpha" type="matrix" values="0 0 0 0 0 0 0 0 0 0 0 0 0 0 0 0 0 0 127 0" result="hardAlpha"/>
<feOffset dy="2"/>
<feComposite in2="hardAlpha" operator="arithmetic" k2="-1" k3="1"/>
<feColorMatrix type="matrix" values="0 0 0 0 1 0 0 0 0 1 0 0 0 0 1 0 0 0 0.03 0"/>
<feBlend mode="normal" in2="shape" result="effect2_innerShadow"/>
</filter>
</defs>
</svg>
